<?xml version="1.0" encoding="utf-8" standalone="no"?>
<!DOCTYPE svg PUBLIC "-//W3C//DTD SVG 1.1//EN"
  "http://www.w3.org/Graphics/SVG/1.1/DTD/svg11.dtd">
<svg xmlns:xlink="http://www.w3.org/1999/xlink" width="640.436719pt" height="338.396783pt" viewBox="0 0 640.436719 338.396783" xmlns="http://www.w3.org/2000/svg" version="1.1">
 <metadata>
  <rdf:RDF xmlns:dc="http://purl.org/dc/elements/1.1/" xmlns:cc="http://creativecommons.org/ns#" xmlns:rdf="http://www.w3.org/1999/02/22-rdf-syntax-ns#">
   <cc:Work>
    <dc:type rdf:resource="http://purl.org/dc/dcmitype/StillImage"/>
    <dc:date>2026-05-29T05:24:15.731782</dc:date>
    <dc:format>image/svg+xml</dc:format>
    <dc:creator>
     <cc:Agent>
      <dc:title>Matplotlib v3.9.2, https://matplotlib.org/</dc:title>
     </cc:Agent>
    </dc:creator>
   </cc:Work>
  </rdf:RDF>
 </metadata>
 <defs>
  <style type="text/css">*{stroke-linejoin: round; stroke-linecap: butt}</style>
 </defs>
 <g id="figure_1">
  <g id="patch_1">
   <path d="M 0 338.396783 
L 640.436719 338.396783 
L 640.436719 0 
L 0 0 
z
" style="fill: #f4f0e7"/>
  </g>
  <g id="axes_1">
   <g id="patch_2">
    <path d="M 63.646719 304.355585 
L 633.236719 304.355585 
L 633.236719 7.839036 
L 63.646719 7.839036 
z
" style="fill: #f4f0e7"/>
   </g>
   <g id="matplotlib.axis_1">
    <g id="xtick_1">
     <g id="line2d_1">
      <defs>
       <path id="m01fee53276" d="M 0 0 
L 0 3.5 
" style="stroke: #52605c; stroke-width: 0.8"/>
      </defs>
      <g>
       <use xlink:href="#m01fee53276" x="132.687931" y="304.355585" style="fill: #52605c; stroke: #52605c; stroke-width: 0.8"/>
      </g>
     </g>
     <g id="text_1">
      <!-- FY24 -->
      <g style="fill: #52605c" transform="translate(122.606334 326.048007) rotate(-20) scale(0.1 -0.1)">
       <defs>
        <path id="HelveticaNeue-46" d="M 499 4570 
L 499 0 
L 1107 0 
L 1107 2093 
L 3206 2093 
L 3206 2605 
L 1107 2605 
L 1107 4058 
L 3501 4058 
L 3501 4570 
L 499 4570 
z
" transform="scale(0.015625)"/>
        <path id="HelveticaNeue-59" d="M 2387 1869 
L 4134 4570 
L 3443 4570 
L 2106 2394 
L 736 4570 
L 13 4570 
L 1779 1869 
L 1779 0 
L 2387 0 
L 2387 1869 
z
" transform="scale(0.015625)"/>
        <path id="HelveticaNeue-32" d="M 282 2931 
L 826 2931 
Q 819 3136 867 3337 
Q 915 3539 1024 3699 
Q 1133 3859 1302 3958 
Q 1472 4058 1709 4058 
Q 1888 4058 2048 4000 
Q 2208 3942 2326 3833 
Q 2445 3725 2515 3574 
Q 2586 3424 2586 3238 
Q 2586 3002 2512 2822 
Q 2438 2643 2294 2489 
Q 2150 2336 1932 2185 
Q 1715 2035 1427 1856 
Q 1190 1715 972 1555 
Q 755 1395 582 1184 
Q 410 973 298 688 
Q 186 403 154 0 
L 3117 0 
L 3117 480 
L 787 480 
Q 826 691 950 854 
Q 1075 1018 1251 1158 
Q 1427 1299 1638 1424 
Q 1850 1549 2061 1677 
Q 2272 1811 2470 1958 
Q 2669 2106 2822 2288 
Q 2976 2470 3069 2700 
Q 3162 2931 3162 3232 
Q 3162 3552 3050 3795 
Q 2938 4038 2746 4201 
Q 2554 4365 2294 4451 
Q 2035 4538 1741 4538 
Q 1382 4538 1100 4416 
Q 819 4294 630 4080 
Q 442 3866 352 3571 
Q 262 3277 282 2931 
z
" transform="scale(0.015625)"/>
        <path id="HelveticaNeue-34" d="M 2170 1542 
L 646 1542 
L 2157 3763 
L 2170 3763 
L 2170 1542 
z
M 2682 1542 
L 2682 4538 
L 2246 4538 
L 179 1587 
L 179 1062 
L 2170 1062 
L 2170 0 
L 2682 0 
L 2682 1062 
L 3296 1062 
L 3296 1542 
L 2682 1542 
z
" transform="scale(0.015625)"/>
       </defs>
       <use xlink:href="#HelveticaNeue-46"/>
       <use xlink:href="#HelveticaNeue-59" x="57.399994"/>
       <use xlink:href="#HelveticaNeue-32" x="122.199982"/>
       <use xlink:href="#HelveticaNeue-34" x="177.799973"/>
      </g>
     </g>
    </g>
    <g id="xtick_2">
     <g id="line2d_2">
      <g>
       <use xlink:href="#m01fee53276" x="240.564825" y="304.355585" style="fill: #52605c; stroke: #52605c; stroke-width: 0.8"/>
      </g>
     </g>
     <g id="text_2">
      <!-- Mix -->
      <g style="fill: #52605c" transform="translate(233.88007 323.575308) rotate(-20) scale(0.1 -0.1)">
       <defs>
        <path id="HelveticaNeue-4d" d="M 512 4570 
L 512 0 
L 1088 0 
L 1088 3802 
L 1101 3802 
L 2528 0 
L 3046 0 
L 4474 3802 
L 4486 3802 
L 4486 0 
L 5062 0 
L 5062 4570 
L 4230 4570 
L 2784 730 
L 1344 4570 
L 512 4570 
z
" transform="scale(0.015625)"/>
        <path id="HelveticaNeue-69" d="M 986 3904 
L 986 4570 
L 442 4570 
L 442 3904 
L 986 3904 
z
M 442 3309 
L 442 0 
L 986 0 
L 986 3309 
L 442 3309 
z
" transform="scale(0.015625)"/>
        <path id="HelveticaNeue-78" d="M 1299 1741 
L 58 0 
L 717 0 
L 1638 1370 
L 2560 0 
L 3258 0 
L 1978 1786 
L 3117 3309 
L 2464 3309 
L 1638 2150 
L 845 3309 
L 147 3309 
L 1299 1741 
z
" transform="scale(0.015625)"/>
       </defs>
       <use xlink:href="#HelveticaNeue-4d"/>
       <use xlink:href="#HelveticaNeue-69" x="87.099991"/>
       <use xlink:href="#HelveticaNeue-78" x="109.299988"/>
      </g>
     </g>
    </g>
    <g id="xtick_3">
     <g id="line2d_3">
      <g>
       <use xlink:href="#m01fee53276" x="348.441719" y="304.355585" style="fill: #52605c; stroke: #52605c; stroke-width: 0.8"/>
      </g>
     </g>
     <g id="text_3">
      <!-- Price -->
      <g style="fill: #52605c" transform="translate(338.627347 325.853483) rotate(-20) scale(0.1 -0.1)">
       <defs>
        <path id="HelveticaNeue-50" d="M 1107 2381 
L 1107 4058 
L 2298 4058 
Q 2816 4058 3056 3843 
Q 3296 3629 3296 3219 
Q 3296 2810 3056 2592 
Q 2816 2374 2298 2381 
L 1107 2381 
z
M 499 4570 
L 499 0 
L 1107 0 
L 1107 1869 
L 2502 1869 
Q 3194 1862 3549 2220 
Q 3904 2579 3904 3219 
Q 3904 3859 3549 4214 
Q 3194 4570 2502 4570 
L 499 4570 
z
" transform="scale(0.015625)"/>
        <path id="HelveticaNeue-72" d="M 390 3309 
L 390 0 
L 934 0 
L 934 1472 
Q 934 1792 998 2038 
Q 1062 2285 1203 2457 
Q 1344 2630 1574 2720 
Q 1805 2810 2131 2810 
L 2131 3386 
Q 1690 3398 1402 3206 
Q 1114 3014 915 2611 
L 902 2611 
L 902 3309 
L 390 3309 
z
" transform="scale(0.015625)"/>
        <path id="HelveticaNeue-63" d="M 2656 2246 
L 3219 2246 
Q 3187 2541 3065 2755 
Q 2944 2970 2755 3110 
Q 2566 3251 2320 3318 
Q 2074 3386 1792 3386 
Q 1402 3386 1107 3248 
Q 813 3110 617 2870 
Q 422 2630 326 2307 
Q 230 1984 230 1613 
Q 230 1242 329 931 
Q 429 621 624 397 
Q 819 173 1110 51 
Q 1402 -70 1779 -70 
Q 2413 -70 2781 262 
Q 3149 595 3238 1210 
L 2682 1210 
Q 2630 826 2403 614 
Q 2176 403 1773 403 
Q 1517 403 1331 505 
Q 1146 608 1030 777 
Q 915 947 860 1164 
Q 806 1382 806 1613 
Q 806 1862 857 2096 
Q 909 2330 1027 2509 
Q 1146 2688 1344 2797 
Q 1542 2906 1837 2906 
Q 2182 2906 2387 2733 
Q 2592 2560 2656 2246 
z
" transform="scale(0.015625)"/>
        <path id="HelveticaNeue-65" d="M 2707 1971 
L 806 1971 
Q 819 2163 889 2332 
Q 960 2502 1081 2630 
Q 1203 2758 1372 2832 
Q 1542 2906 1754 2906 
Q 1958 2906 2128 2832 
Q 2298 2758 2422 2633 
Q 2547 2509 2620 2336 
Q 2694 2163 2707 1971 
z
M 3232 1050 
L 2694 1050 
Q 2624 723 2403 563 
Q 2182 403 1837 403 
Q 1568 403 1369 492 
Q 1171 582 1043 732 
Q 915 883 857 1078 
Q 800 1274 806 1491 
L 3283 1491 
Q 3296 1792 3229 2125 
Q 3162 2458 2986 2739 
Q 2810 3021 2518 3203 
Q 2227 3386 1786 3386 
Q 1446 3386 1161 3258 
Q 877 3130 669 2899 
Q 461 2669 345 2355 
Q 230 2042 230 1664 
Q 243 1286 342 966 
Q 442 646 640 416 
Q 838 186 1129 58 
Q 1421 -70 1818 -70 
Q 2381 -70 2752 211 
Q 3123 493 3232 1050 
z
" transform="scale(0.015625)"/>
       </defs>
       <use xlink:href="#HelveticaNeue-50"/>
       <use xlink:href="#HelveticaNeue-72" x="64.799988"/>
       <use xlink:href="#HelveticaNeue-69" x="98.099976"/>
       <use xlink:href="#HelveticaNeue-63" x="120.299973"/>
       <use xlink:href="#HelveticaNeue-65" x="173.999969"/>
      </g>
     </g>
    </g>
    <g id="xtick_4">
     <g id="line2d_4">
      <g>
       <use xlink:href="#m01fee53276" x="456.318613" y="304.355585" style="fill: #52605c; stroke: #52605c; stroke-width: 0.8"/>
      </g>
     </g>
     <g id="text_4">
      <!-- Volume -->
      <g style="fill: #52605c" transform="translate(441.707404 329.345295) rotate(-20) scale(0.1 -0.1)">
       <defs>
        <path id="HelveticaNeue-56" d="M 2298 0 
L 3923 4570 
L 3290 4570 
L 1971 608 
L 1958 608 
L 653 4570 
L 0 4570 
L 1606 0 
L 2298 0 
z
" transform="scale(0.015625)"/>
        <path id="HelveticaNeue-6f" d="M 806 1651 
Q 806 1952 886 2185 
Q 966 2419 1107 2579 
Q 1248 2739 1437 2822 
Q 1626 2906 1837 2906 
Q 2048 2906 2237 2822 
Q 2426 2739 2566 2579 
Q 2707 2419 2787 2185 
Q 2867 1952 2867 1651 
Q 2867 1350 2787 1116 
Q 2707 883 2566 726 
Q 2426 570 2237 486 
Q 2048 403 1837 403 
Q 1626 403 1437 486 
Q 1248 570 1107 726 
Q 966 883 886 1116 
Q 806 1350 806 1651 
z
M 230 1651 
Q 230 1286 332 972 
Q 435 659 640 425 
Q 845 192 1145 61 
Q 1446 -70 1837 -70 
Q 2234 -70 2531 61 
Q 2829 192 3033 425 
Q 3238 659 3340 972 
Q 3443 1286 3443 1651 
Q 3443 2016 3340 2333 
Q 3238 2650 3033 2883 
Q 2829 3117 2531 3251 
Q 2234 3386 1837 3386 
Q 1446 3386 1145 3251 
Q 845 3117 640 2883 
Q 435 2650 332 2333 
Q 230 2016 230 1651 
z
" transform="scale(0.015625)"/>
        <path id="HelveticaNeue-6c" d="M 442 4570 
L 442 0 
L 986 0 
L 986 4570 
L 442 4570 
z
" transform="scale(0.015625)"/>
        <path id="HelveticaNeue-75" d="M 3149 0 
L 3149 3309 
L 2605 3309 
L 2605 1440 
Q 2605 1216 2544 1027 
Q 2483 838 2361 697 
Q 2240 557 2057 480 
Q 1875 403 1626 403 
Q 1312 403 1133 582 
Q 954 762 954 1069 
L 954 3309 
L 410 3309 
L 410 1133 
Q 410 864 464 643 
Q 518 422 652 262 
Q 787 102 1004 16 
Q 1222 -70 1549 -70 
Q 1914 -70 2182 74 
Q 2451 218 2624 525 
L 2637 525 
L 2637 0 
L 3149 0 
z
" transform="scale(0.015625)"/>
        <path id="HelveticaNeue-6d" d="M 410 3309 
L 410 0 
L 954 0 
L 954 2061 
Q 954 2157 1002 2301 
Q 1050 2445 1155 2579 
Q 1261 2714 1430 2810 
Q 1600 2906 1837 2906 
Q 2022 2906 2140 2851 
Q 2259 2797 2329 2697 
Q 2400 2598 2429 2464 
Q 2458 2330 2458 2170 
L 2458 0 
L 3002 0 
L 3002 2061 
Q 3002 2445 3232 2675 
Q 3462 2906 3866 2906 
Q 4064 2906 4189 2848 
Q 4314 2790 4384 2691 
Q 4454 2592 4480 2457 
Q 4506 2323 4506 2170 
L 4506 0 
L 5050 0 
L 5050 2426 
Q 5050 2682 4970 2864 
Q 4890 3046 4746 3161 
Q 4602 3277 4400 3331 
Q 4198 3386 3949 3386 
Q 3622 3386 3350 3238 
Q 3078 3091 2912 2822 
Q 2810 3130 2560 3258 
Q 2310 3386 2003 3386 
Q 1306 3386 934 2822 
L 922 2822 
L 922 3309 
L 410 3309 
z
" transform="scale(0.015625)"/>
       </defs>
       <use xlink:href="#HelveticaNeue-56"/>
       <use xlink:href="#HelveticaNeue-6f" x="55.599991"/>
       <use xlink:href="#HelveticaNeue-6c" x="112.999985"/>
       <use xlink:href="#HelveticaNeue-75" x="135.199982"/>
       <use xlink:href="#HelveticaNeue-6d" x="190.799973"/>
       <use xlink:href="#HelveticaNeue-65" x="276.09996"/>
      </g>
     </g>
    </g>
    <g id="xtick_5">
     <g id="line2d_5">
      <g>
       <use xlink:href="#m01fee53276" x="564.195507" y="304.355585" style="fill: #52605c; stroke: #52605c; stroke-width: 0.8"/>
      </g>
     </g>
     <g id="text_5">
      <!-- FY25 -->
      <g style="fill: #52605c" transform="translate(554.11391 326.048007) rotate(-20) scale(0.1 -0.1)">
       <defs>
        <path id="HelveticaNeue-35" d="M 3008 3981 
L 3008 4461 
L 768 4461 
L 346 2106 
L 813 2080 
Q 973 2272 1181 2390 
Q 1389 2509 1658 2509 
Q 1888 2509 2077 2432 
Q 2266 2355 2400 2217 
Q 2534 2080 2608 1891 
Q 2682 1702 2682 1478 
Q 2682 1210 2605 1008 
Q 2528 806 2397 672 
Q 2266 538 2090 470 
Q 1914 403 1722 403 
Q 1517 403 1347 464 
Q 1178 525 1053 637 
Q 928 749 854 899 
Q 781 1050 768 1222 
L 224 1222 
Q 230 915 345 672 
Q 461 429 659 265 
Q 858 102 1117 16 
Q 1376 -70 1670 -70 
Q 2067 -70 2364 54 
Q 2662 179 2860 390 
Q 3059 602 3158 874 
Q 3258 1146 3258 1434 
Q 3258 1824 3142 2115 
Q 3027 2406 2828 2601 
Q 2630 2797 2361 2893 
Q 2093 2989 1792 2989 
Q 1562 2989 1328 2909 
Q 1094 2829 947 2662 
L 934 2675 
L 1178 3981 
L 3008 3981 
z
" transform="scale(0.015625)"/>
       </defs>
       <use xlink:href="#HelveticaNeue-46"/>
       <use xlink:href="#HelveticaNeue-59" x="57.399994"/>
       <use xlink:href="#HelveticaNeue-32" x="122.199982"/>
       <use xlink:href="#HelveticaNeue-35" x="177.799973"/>
      </g>
     </g>
    </g>
   </g>
   <g id="matplotlib.axis_2">
    <g id="ytick_1">
     <g id="line2d_6">
      <path d="M 63.646719 304.355585 
L 633.236719 304.355585 
" clip-path="url(#p2684726755)" style="fill: none; stroke: #dad6cb; stroke-width: 0.6; stroke-linecap: square"/>
     </g>
     <g id="line2d_7">
      <defs>
       <path id="m42da0c5e14" d="M 0 0 
L -3.5 0 
" style="stroke: #52605c; stroke-width: 0.8"/>
      </defs>
      <g>
       <use xlink:href="#m42da0c5e14" x="63.646719" y="304.355585" style="fill: #52605c; stroke: #52605c; stroke-width: 0.8"/>
      </g>
     </g>
     <g id="text_6">
      <!-- $0 -->
      <g style="fill: #52605c" transform="translate(45.527969 307.925897) scale(0.1 -0.1)">
       <defs>
        <path id="HelveticaNeue-24" d="M 704 1395 
L 160 1395 
Q 211 723 588 342 
Q 966 -38 1606 -102 
L 1606 -627 
L 1958 -627 
L 1958 -102 
Q 2266 -77 2522 25 
Q 2778 128 2963 304 
Q 3149 480 3254 723 
Q 3360 966 3360 1280 
Q 3360 1574 3248 1785 
Q 3136 1997 2976 2137 
Q 2816 2278 2643 2358 
Q 2470 2438 2342 2470 
L 1958 2573 
L 1958 4147 
Q 2547 4038 2675 3405 
L 3219 3405 
Q 3091 3968 2784 4288 
Q 2477 4608 1958 4672 
L 1958 5101 
L 1606 5101 
L 1606 4678 
Q 1331 4659 1091 4556 
Q 851 4454 675 4278 
Q 499 4102 396 3862 
Q 294 3622 294 3334 
Q 294 3053 371 2854 
Q 448 2656 611 2518 
Q 774 2381 1020 2281 
Q 1267 2182 1606 2099 
L 1606 403 
Q 1222 467 969 716 
Q 717 966 704 1395 
z
M 1958 403 
L 1958 2010 
Q 2131 1958 2284 1897 
Q 2438 1837 2547 1747 
Q 2656 1658 2720 1533 
Q 2784 1408 2784 1222 
Q 2784 1018 2723 867 
Q 2662 717 2550 617 
Q 2438 518 2288 467 
Q 2138 416 1958 403 
z
M 1606 4166 
L 1606 2669 
Q 1446 2714 1312 2771 
Q 1178 2829 1078 2909 
Q 979 2989 924 3107 
Q 870 3226 870 3392 
Q 870 3757 1084 3945 
Q 1299 4134 1606 4166 
z
" transform="scale(0.015625)"/>
        <path id="HelveticaNeue-30" d="M 845 2234 
Q 845 2400 848 2601 
Q 851 2803 880 3004 
Q 909 3206 963 3398 
Q 1018 3590 1123 3734 
Q 1229 3878 1389 3968 
Q 1549 4058 1779 4058 
Q 2010 4058 2170 3968 
Q 2330 3878 2435 3734 
Q 2541 3590 2595 3398 
Q 2650 3206 2678 3004 
Q 2707 2803 2710 2601 
Q 2714 2400 2714 2234 
Q 2714 1978 2698 1661 
Q 2682 1344 2595 1065 
Q 2509 787 2317 595 
Q 2125 403 1779 403 
Q 1434 403 1242 595 
Q 1050 787 963 1065 
Q 877 1344 861 1661 
Q 845 1978 845 2234 
z
M 269 2227 
Q 269 1978 281 1709 
Q 294 1440 345 1184 
Q 397 928 493 701 
Q 589 474 755 301 
Q 922 128 1174 29 
Q 1427 -70 1779 -70 
Q 2138 -70 2387 29 
Q 2637 128 2803 301 
Q 2970 474 3066 701 
Q 3162 928 3213 1184 
Q 3264 1440 3277 1709 
Q 3290 1978 3290 2227 
Q 3290 2477 3277 2745 
Q 3264 3014 3213 3270 
Q 3162 3526 3066 3756 
Q 2970 3987 2803 4160 
Q 2637 4333 2384 4435 
Q 2131 4538 1779 4538 
Q 1427 4538 1174 4435 
Q 922 4333 755 4160 
Q 589 3987 493 3756 
Q 397 3526 345 3270 
Q 294 3014 281 2745 
Q 269 2477 269 2227 
z
" transform="scale(0.015625)"/>
       </defs>
       <use xlink:href="#HelveticaNeue-24"/>
       <use xlink:href="#HelveticaNeue-30" x="55.599991"/>
      </g>
     </g>
    </g>
    <g id="ytick_2">
     <g id="line2d_8">
      <path d="M 63.646719 269.055996 
L 633.236719 269.055996 
" clip-path="url(#p2684726755)" style="fill: none; stroke: #dad6cb; stroke-width: 0.6; stroke-linecap: square"/>
     </g>
     <g id="line2d_9">
      <g>
       <use xlink:href="#m42da0c5e14" x="63.646719" y="269.055996" style="fill: #52605c; stroke: #52605c; stroke-width: 0.8"/>
      </g>
     </g>
     <g id="text_7">
      <!-- $500.0K -->
      <g style="fill: #52605c" transform="translate(19.399844 272.626308) scale(0.1 -0.1)">
       <defs>
        <path id="HelveticaNeue-2e" d="M 531 710 
L 531 0 
L 1242 0 
L 1242 710 
L 531 710 
z
" transform="scale(0.015625)"/>
        <path id="HelveticaNeue-4b" d="M 499 4570 
L 499 0 
L 1107 0 
L 1107 1600 
L 1869 2310 
L 3520 0 
L 4288 0 
L 2285 2726 
L 4211 4570 
L 3424 4570 
L 1107 2291 
L 1107 4570 
L 499 4570 
z
" transform="scale(0.015625)"/>
       </defs>
       <use xlink:href="#HelveticaNeue-24"/>
       <use xlink:href="#HelveticaNeue-35" x="55.599991"/>
       <use xlink:href="#HelveticaNeue-30" x="111.199982"/>
       <use xlink:href="#HelveticaNeue-30" x="166.799973"/>
       <use xlink:href="#HelveticaNeue-2e" x="222.399963"/>
       <use xlink:href="#HelveticaNeue-30" x="250.199951"/>
       <use xlink:href="#HelveticaNeue-4b" x="305.799942"/>
      </g>
     </g>
    </g>
    <g id="ytick_3">
     <g id="line2d_10">
      <path d="M 63.646719 233.756406 
L 633.236719 233.756406 
" clip-path="url(#p2684726755)" style="fill: none; stroke: #dad6cb; stroke-width: 0.6; stroke-linecap: square"/>
     </g>
     <g id="line2d_11">
      <g>
       <use xlink:href="#m42da0c5e14" x="63.646719" y="233.756406" style="fill: #52605c; stroke: #52605c; stroke-width: 0.8"/>
      </g>
     </g>
     <g id="text_8">
      <!-- $1.0M -->
      <g style="fill: #52605c" transform="translate(28.479531 237.326719) scale(0.1 -0.1)">
       <defs>
        <path id="HelveticaNeue-31" d="M 2278 0 
L 2278 4538 
L 1862 4538 
Q 1818 4282 1696 4115 
Q 1574 3949 1398 3853 
Q 1222 3757 1004 3721 
Q 787 3686 557 3686 
L 557 3251 
L 1734 3251 
L 1734 0 
L 2278 0 
z
" transform="scale(0.015625)"/>
       </defs>
       <use xlink:href="#HelveticaNeue-24"/>
       <use xlink:href="#HelveticaNeue-31" x="55.599991"/>
       <use xlink:href="#HelveticaNeue-2e" x="111.199982"/>
       <use xlink:href="#HelveticaNeue-30" x="138.999969"/>
       <use xlink:href="#HelveticaNeue-4d" x="194.59996"/>
      </g>
     </g>
    </g>
    <g id="ytick_4">
     <g id="line2d_12">
      <path d="M 63.646719 198.456817 
L 633.236719 198.456817 
" clip-path="url(#p2684726755)" style="fill: none; stroke: #dad6cb; stroke-width: 0.6; stroke-linecap: square"/>
     </g>
     <g id="line2d_13">
      <g>
       <use xlink:href="#m42da0c5e14" x="63.646719" y="198.456817" style="fill: #52605c; stroke: #52605c; stroke-width: 0.8"/>
      </g>
     </g>
     <g id="text_9">
      <!-- $1.5M -->
      <g style="fill: #52605c" transform="translate(28.479531 202.02713) scale(0.1 -0.1)">
       <use xlink:href="#HelveticaNeue-24"/>
       <use xlink:href="#HelveticaNeue-31" x="55.599991"/>
       <use xlink:href="#HelveticaNeue-2e" x="111.199982"/>
       <use xlink:href="#HelveticaNeue-35" x="138.999969"/>
       <use xlink:href="#HelveticaNeue-4d" x="194.59996"/>
      </g>
     </g>
    </g>
    <g id="ytick_5">
     <g id="line2d_14">
      <path d="M 63.646719 163.157228 
L 633.236719 163.157228 
" clip-path="url(#p2684726755)" style="fill: none; stroke: #dad6cb; stroke-width: 0.6; stroke-linecap: square"/>
     </g>
     <g id="line2d_15">
      <g>
       <use xlink:href="#m42da0c5e14" x="63.646719" y="163.157228" style="fill: #52605c; stroke: #52605c; stroke-width: 0.8"/>
      </g>
     </g>
     <g id="text_10">
      <!-- $2.0M -->
      <g style="fill: #52605c" transform="translate(28.479531 166.727541) scale(0.1 -0.1)">
       <use xlink:href="#HelveticaNeue-24"/>
       <use xlink:href="#HelveticaNeue-32" x="55.599991"/>
       <use xlink:href="#HelveticaNeue-2e" x="111.199982"/>
       <use xlink:href="#HelveticaNeue-30" x="138.999969"/>
       <use xlink:href="#HelveticaNeue-4d" x="194.59996"/>
      </g>
     </g>
    </g>
    <g id="ytick_6">
     <g id="line2d_16">
      <path d="M 63.646719 127.857639 
L 633.236719 127.857639 
" clip-path="url(#p2684726755)" style="fill: none; stroke: #dad6cb; stroke-width: 0.6; stroke-linecap: square"/>
     </g>
     <g id="line2d_17">
      <g>
       <use xlink:href="#m42da0c5e14" x="63.646719" y="127.857639" style="fill: #52605c; stroke: #52605c; stroke-width: 0.8"/>
      </g>
     </g>
     <g id="text_11">
      <!-- $2.5M -->
      <g style="fill: #52605c" transform="translate(28.479531 131.427952) scale(0.1 -0.1)">
       <use xlink:href="#HelveticaNeue-24"/>
       <use xlink:href="#HelveticaNeue-32" x="55.599991"/>
       <use xlink:href="#HelveticaNeue-2e" x="111.199982"/>
       <use xlink:href="#HelveticaNeue-35" x="138.999969"/>
       <use xlink:href="#HelveticaNeue-4d" x="194.59996"/>
      </g>
     </g>
    </g>
    <g id="ytick_7">
     <g id="line2d_18">
      <path d="M 63.646719 92.55805 
L 633.236719 92.55805 
" clip-path="url(#p2684726755)" style="fill: none; stroke: #dad6cb; stroke-width: 0.6; stroke-linecap: square"/>
     </g>
     <g id="line2d_19">
      <g>
       <use xlink:href="#m42da0c5e14" x="63.646719" y="92.55805" style="fill: #52605c; stroke: #52605c; stroke-width: 0.8"/>
      </g>
     </g>
     <g id="text_12">
      <!-- $3.0M -->
      <g style="fill: #52605c" transform="translate(28.479531 96.128362) scale(0.1 -0.1)">
       <defs>
        <path id="HelveticaNeue-33" d="M 1395 2592 
L 1395 2131 
Q 1549 2150 1722 2150 
Q 1926 2150 2102 2096 
Q 2278 2042 2406 1930 
Q 2534 1818 2611 1654 
Q 2688 1491 2688 1280 
Q 2688 1075 2608 912 
Q 2528 749 2393 637 
Q 2259 525 2080 464 
Q 1901 403 1702 403 
Q 1235 403 992 681 
Q 749 960 736 1402 
L 192 1402 
Q 186 1050 291 774 
Q 397 499 595 310 
Q 794 122 1075 26 
Q 1357 -70 1702 -70 
Q 2022 -70 2307 16 
Q 2592 102 2803 275 
Q 3014 448 3139 707 
Q 3264 966 3264 1306 
Q 3264 1715 3062 2016 
Q 2861 2317 2445 2406 
L 2445 2419 
Q 2714 2541 2893 2777 
Q 3072 3014 3072 3322 
Q 3072 3635 2966 3865 
Q 2861 4096 2675 4243 
Q 2490 4390 2237 4464 
Q 1984 4538 1690 4538 
Q 1350 4538 1091 4429 
Q 832 4320 659 4128 
Q 486 3936 393 3667 
Q 301 3398 288 3072 
L 832 3072 
Q 832 3270 883 3449 
Q 934 3629 1040 3763 
Q 1146 3898 1309 3978 
Q 1472 4058 1690 4058 
Q 2035 4058 2265 3875 
Q 2496 3693 2496 3328 
Q 2496 3149 2425 3008 
Q 2355 2867 2236 2774 
Q 2118 2682 1961 2634 
Q 1805 2586 1632 2586 
L 1517 2586 
Q 1485 2586 1453 2586 
Q 1427 2586 1395 2592 
z
" transform="scale(0.015625)"/>
       </defs>
       <use xlink:href="#HelveticaNeue-24"/>
       <use xlink:href="#HelveticaNeue-33" x="55.599991"/>
       <use xlink:href="#HelveticaNeue-2e" x="111.199982"/>
       <use xlink:href="#HelveticaNeue-30" x="138.999969"/>
       <use xlink:href="#HelveticaNeue-4d" x="194.59996"/>
      </g>
     </g>
    </g>
    <g id="ytick_8">
     <g id="line2d_20">
      <path d="M 63.646719 57.258461 
L 633.236719 57.258461 
" clip-path="url(#p2684726755)" style="fill: none; stroke: #dad6cb; stroke-width: 0.6; stroke-linecap: square"/>
     </g>
     <g id="line2d_21">
      <g>
       <use xlink:href="#m42da0c5e14" x="63.646719" y="57.258461" style="fill: #52605c; stroke: #52605c; stroke-width: 0.8"/>
      </g>
     </g>
     <g id="text_13">
      <!-- $3.5M -->
      <g style="fill: #52605c" transform="translate(28.479531 60.828773) scale(0.1 -0.1)">
       <use xlink:href="#HelveticaNeue-24"/>
       <use xlink:href="#HelveticaNeue-33" x="55.599991"/>
       <use xlink:href="#HelveticaNeue-2e" x="111.199982"/>
       <use xlink:href="#HelveticaNeue-35" x="138.999969"/>
       <use xlink:href="#HelveticaNeue-4d" x="194.59996"/>
      </g>
     </g>
    </g>
    <g id="ytick_9">
     <g id="line2d_22">
      <path d="M 63.646719 21.958872 
L 633.236719 21.958872 
" clip-path="url(#p2684726755)" style="fill: none; stroke: #dad6cb; stroke-width: 0.6; stroke-linecap: square"/>
     </g>
     <g id="line2d_23">
      <g>
       <use xlink:href="#m42da0c5e14" x="63.646719" y="21.958872" style="fill: #52605c; stroke: #52605c; stroke-width: 0.8"/>
      </g>
     </g>
     <g id="text_14">
      <!-- $4.0M -->
      <g style="fill: #52605c" transform="translate(28.479531 25.529184) scale(0.1 -0.1)">
       <use xlink:href="#HelveticaNeue-24"/>
       <use xlink:href="#HelveticaNeue-34" x="55.599991"/>
       <use xlink:href="#HelveticaNeue-2e" x="111.199982"/>
       <use xlink:href="#HelveticaNeue-30" x="138.999969"/>
       <use xlink:href="#HelveticaNeue-4d" x="194.59996"/>
      </g>
     </g>
    </g>
    <g id="text_15">
     <!-- USD -->
     <g style="fill: #111514" transform="translate(13.626563 165.430592) rotate(-90) scale(0.09 -0.09)">
      <defs>
       <path id="HelveticaNeue-55" d="M 4147 1651 
L 4147 4570 
L 3539 4570 
L 3539 1651 
Q 3539 1037 3235 720 
Q 2931 403 2349 403 
Q 1734 403 1408 720 
Q 1082 1037 1082 1651 
L 1082 4570 
L 474 4570 
L 474 1651 
Q 474 736 970 317 
Q 1466 -102 2349 -102 
Q 3213 -102 3680 336 
Q 4147 774 4147 1651 
z
" transform="scale(0.015625)"/>
       <path id="HelveticaNeue-53" d="M 3142 3232 
L 3718 3232 
Q 3706 3610 3574 3882 
Q 3443 4154 3216 4333 
Q 2989 4512 2688 4595 
Q 2387 4678 2035 4678 
Q 1722 4678 1424 4598 
Q 1126 4518 892 4355 
Q 659 4192 518 3939 
Q 378 3686 378 3341 
Q 378 3027 502 2819 
Q 627 2611 835 2480 
Q 1043 2349 1305 2269 
Q 1568 2189 1840 2128 
Q 2112 2067 2374 2009 
Q 2637 1952 2845 1859 
Q 3053 1766 3177 1619 
Q 3302 1472 3302 1235 
Q 3302 986 3200 826 
Q 3098 666 2931 573 
Q 2765 480 2557 441 
Q 2349 403 2144 403 
Q 1888 403 1645 467 
Q 1402 531 1219 665 
Q 1037 800 925 1008 
Q 813 1216 813 1504 
L 237 1504 
Q 237 1088 387 784 
Q 538 480 797 285 
Q 1056 90 1398 -6 
Q 1741 -102 2125 -102 
Q 2438 -102 2755 -28 
Q 3072 45 3328 208 
Q 3584 371 3747 630 
Q 3910 890 3910 1254 
Q 3910 1594 3785 1818 
Q 3661 2042 3453 2189 
Q 3245 2336 2982 2422 
Q 2720 2509 2448 2573 
Q 2176 2637 1913 2691 
Q 1651 2746 1443 2829 
Q 1235 2912 1110 3043 
Q 986 3174 986 3386 
Q 986 3610 1072 3760 
Q 1158 3910 1302 4000 
Q 1446 4090 1632 4128 
Q 1818 4166 2010 4166 
Q 2483 4166 2787 3945 
Q 3091 3725 3142 3232 
z
" transform="scale(0.015625)"/>
       <path id="HelveticaNeue-44" d="M 1107 512 
L 1107 4058 
L 2131 4058 
Q 2554 4058 2842 3939 
Q 3130 3821 3312 3593 
Q 3494 3366 3574 3043 
Q 3654 2720 3654 2310 
Q 3654 1888 3568 1590 
Q 3482 1293 3347 1094 
Q 3213 896 3043 781 
Q 2874 666 2701 605 
Q 2528 544 2374 528 
Q 2221 512 2118 512 
L 1107 512 
z
M 499 4570 
L 499 0 
L 2067 0 
Q 2637 0 3053 160 
Q 3469 320 3737 624 
Q 4006 928 4134 1373 
Q 4262 1818 4262 2394 
Q 4262 3494 3692 4032 
Q 3123 4570 2067 4570 
L 499 4570 
z
" transform="scale(0.015625)"/>
      </defs>
      <use xlink:href="#HelveticaNeue-55"/>
      <use xlink:href="#HelveticaNeue-53" x="72.199982"/>
      <use xlink:href="#HelveticaNeue-44" x="136.999969"/>
     </g>
    </g>
   </g>
   <g id="patch_3">
    <path d="M 89.537173 304.355585 
L 175.838688 304.355585 
L 175.838688 304.355585 
L 89.537173 304.355585 
z
" clip-path="url(#p2684726755)" style="fill: #111514"/>
   </g>
   <g id="patch_4">
    <path d="M 197.414067 304.355585 
L 283.715582 304.355585 
L 283.715582 163.157228 
L 197.414067 163.157228 
z
" clip-path="url(#p2684726755)" style="fill: #6fbe31"/>
   </g>
   <g id="patch_5">
    <path d="M 305.290961 163.157228 
L 391.592476 163.157228 
L 391.592476 233.756406 
L 305.290961 233.756406 
z
" clip-path="url(#p2684726755)" style="fill: #b3662f"/>
   </g>
   <g id="patch_6">
    <path d="M 413.167855 233.756406 
L 499.46937 233.756406 
L 499.46937 21.958872 
L 413.167855 21.958872 
z
" clip-path="url(#p2684726755)" style="fill: #6fbe31"/>
   </g>
   <g id="patch_7">
    <path d="M 521.044749 304.355585 
L 607.346264 304.355585 
L 607.346264 21.958872 
L 521.044749 21.958872 
z
" clip-path="url(#p2684726755)" style="fill: #111514"/>
   </g>
   <g id="line2d_24">
    <path d="M 63.646719 304.355585 
L 633.236719 304.355585 
" clip-path="url(#p2684726755)" style="fill: none; stroke: #dad6cb; stroke-width: 0.6; stroke-linecap: square"/>
   </g>
   <g id="patch_8">
    <path d="M 63.646719 304.355585 
L 63.646719 7.839036 
" style="fill: none; stroke: #111514; stroke-width: 0.8; stroke-linejoin: miter; stroke-linecap: square"/>
   </g>
   <g id="patch_9">
    <path d="M 63.646719 304.355585 
L 633.236719 304.355585 
" style="fill: none; stroke: #111514; stroke-width: 0.8; stroke-linejoin: miter; stroke-linecap: square"/>
   </g>
   <g id="text_16">
    <!-- $0 -->
    <g style="fill: #111514" transform="translate(127.128556 296.737338) scale(0.1 -0.1)">
     <use xlink:href="#HelveticaNeue-24"/>
     <use xlink:href="#HelveticaNeue-30" x="55.599991"/>
    </g>
   </g>
   <g id="text_17">
    <!-- +$2.0M -->
    <g style="fill: #f4f0e7" transform="translate(225.18959 236.083047) scale(0.09 -0.09)">
     <defs>
      <path id="HelveticaNeue-2b" d="M 2138 1837 
L 2138 3238 
L 1702 3238 
L 1702 1837 
L 307 1837 
L 307 1402 
L 1702 1402 
L 1702 0 
L 2138 0 
L 2138 1402 
L 3533 1402 
L 3533 1837 
L 2138 1837 
z
" transform="scale(0.015625)"/>
     </defs>
     <use xlink:href="#HelveticaNeue-2b"/>
     <use xlink:href="#HelveticaNeue-24" x="59.999985"/>
     <use xlink:href="#HelveticaNeue-32" x="115.599976"/>
     <use xlink:href="#HelveticaNeue-2e" x="171.199966"/>
     <use xlink:href="#HelveticaNeue-30" x="198.999954"/>
     <use xlink:href="#HelveticaNeue-4d" x="254.599945"/>
    </g>
   </g>
   <g id="text_18">
    <!-- -$1.0M -->
    <g style="fill: #f4f0e7" transform="translate(334.015703 200.783458) scale(0.09 -0.09)">
     <defs>
      <path id="HelveticaNeue-2d" d="M 320 2035 
L 320 1523 
L 2170 1523 
L 2170 2035 
L 320 2035 
z
" transform="scale(0.015625)"/>
     </defs>
     <use xlink:href="#HelveticaNeue-2d"/>
     <use xlink:href="#HelveticaNeue-24" x="38.899994"/>
     <use xlink:href="#HelveticaNeue-31" x="94.499985"/>
     <use xlink:href="#HelveticaNeue-2e" x="150.099976"/>
     <use xlink:href="#HelveticaNeue-30" x="177.899963"/>
     <use xlink:href="#HelveticaNeue-4d" x="233.499954"/>
    </g>
   </g>
   <g id="text_19">
    <!-- +$3.0M -->
    <g style="fill: #f4f0e7" transform="translate(440.943378 130.18428) scale(0.09 -0.09)">
     <use xlink:href="#HelveticaNeue-2b"/>
     <use xlink:href="#HelveticaNeue-24" x="59.999985"/>
     <use xlink:href="#HelveticaNeue-33" x="115.599976"/>
     <use xlink:href="#HelveticaNeue-2e" x="171.199966"/>
     <use xlink:href="#HelveticaNeue-30" x="198.999954"/>
     <use xlink:href="#HelveticaNeue-4d" x="254.599945"/>
    </g>
   </g>
   <g id="text_20">
    <!-- $4.0M -->
    <g style="fill: #111514" transform="translate(550.111913 14.340625) scale(0.1 -0.1)">
     <use xlink:href="#HelveticaNeue-24"/>
     <use xlink:href="#HelveticaNeue-34" x="55.599991"/>
     <use xlink:href="#HelveticaNeue-2e" x="111.199982"/>
     <use xlink:href="#HelveticaNeue-30" x="138.999969"/>
     <use xlink:href="#HelveticaNeue-4d" x="194.59996"/>
    </g>
   </g>
  </g>
 </g>
 <defs>
  <clipPath id="p2684726755">
   <rect x="63.646719" y="7.839036" width="569.59" height="296.516549"/>
  </clipPath>
 </defs>
</svg>
